<svg xmlns="http://www.w3.org/2000/svg" viewBox="0 0 256 256"><defs><linearGradient id="g1" x1="0" y1="0" x2="0" y2="1"><stop offset="0" stop-color="#f6ca71"/><stop offset=".5" stop-color="#F2B53A"/><stop offset="1" stop-color="#a57b2f"/></linearGradient><clipPath id="c2"><path d="M116 126 L48 194 L62 208 L74 196 L86 208 L100 194 L90 184 L132 142Z"/></clipPath><linearGradient id="w3" x1="0" y1="0" x2="0" y2="1"><stop offset="0" stop-color="#fff" stop-opacity="0.45"/><stop offset=".45" stop-color="#fff" stop-opacity="0"/></linearGradient><linearGradient id="g4" x1="0" y1="0" x2="0" y2="1"><stop offset="0" stop-color="#f6ca71"/><stop offset=".5" stop-color="#F2B53A"/><stop offset="1" stop-color="#a57b2f"/></linearGradient><clipPath id="c5"><path d="M108 92a56 56 0 1 0 112 0a56 56 0 1 0 -112 0Z"/></clipPath><linearGradient id="w6" x1="0" y1="0" x2="0" y2="1"><stop offset="0" stop-color="#fff" stop-opacity="0.45"/><stop offset=".45" stop-color="#fff" stop-opacity="0"/></linearGradient><linearGradient id="g7" x1="0" y1="0" x2="0" y2="1"><stop offset="0" stop-color="#caa96b"/><stop offset=".5" stop-color="#b68831"/><stop offset="1" stop-color="#7c5c28"/></linearGradient><clipPath id="c8"><path d="M134 92a30 30 0 1 0 60 0a30 30 0 1 0 -60 0Z"/></clipPath><linearGradient id="w9" x1="0" y1="0" x2="0" y2="1"><stop offset="0" stop-color="#fff" stop-opacity="0.1"/><stop offset=".45" stop-color="#fff" stop-opacity="0"/></linearGradient><linearGradient id="g10" x1="0" y1="0" x2="0" y2="1"><stop offset="0" stop-color="#f6ca71"/><stop offset=".5" stop-color="#F2B53A"/><stop offset="1" stop-color="#a57b2f"/></linearGradient><clipPath id="c11"><path d="M130 44 L138 16 L152 34 L164 10 L176 34 L190 16 L198 44Z"/></clipPath><linearGradient id="w12" x1="0" y1="0" x2="0" y2="1"><stop offset="0" stop-color="#fff" stop-opacity="0.45"/><stop offset=".45" stop-color="#fff" stop-opacity="0"/></linearGradient></defs><ellipse cx="128" cy="228" rx="70" ry="10" fill="#000" opacity=".28"/><g opacity="1"><path d="M116 126 L48 194 L62 208 L74 196 L86 208 L100 194 L90 184 L132 142Z" fill="url(#g1)"/><g clip-path="url(#c2)"><path d="M116 126 L48 194 L62 208 L74 196 L86 208 L100 194 L90 184 L132 142Z" fill="none" stroke="#85642b" stroke-width="14.399999999999999" transform="translate(5 6)" opacity=".55"/><path d="M116 126 L48 194 L62 208 L74 196 L86 208 L100 194 L90 184 L132 142Z" fill="none" stroke="#f9dea6" stroke-width="7.800000000000001" transform="translate(-3 -3)" opacity=".75"/><path d="M116 126 L48 194 L62 208 L74 196 L86 208 L100 194 L90 184 L132 142Z" fill="url(#w3)"/></g><path d="M116 126 L48 194 L62 208 L74 196 L86 208 L100 194 L90 184 L132 142Z" fill="none" stroke="#1A1226" stroke-width="6" stroke-linejoin="round" stroke-linecap="round"/></g><g opacity="1"><path d="M108 92a56 56 0 1 0 112 0a56 56 0 1 0 -112 0Z" fill="url(#g4)"/><g clip-path="url(#c5)"><path d="M108 92a56 56 0 1 0 112 0a56 56 0 1 0 -112 0Z" fill="none" stroke="#85642b" stroke-width="14.399999999999999" transform="translate(5 6)" opacity=".55"/><path d="M108 92a56 56 0 1 0 112 0a56 56 0 1 0 -112 0Z" fill="none" stroke="#f9dea6" stroke-width="7.800000000000001" transform="translate(-3 -3)" opacity=".75"/><path d="M108 92a56 56 0 1 0 112 0a56 56 0 1 0 -112 0Z" fill="url(#w6)"/></g><path d="M108 92a56 56 0 1 0 112 0a56 56 0 1 0 -112 0Z" fill="none" stroke="#1A1226" stroke-width="6" stroke-linejoin="round" stroke-linecap="round"/></g><g opacity="1"><path d="M134 92a30 30 0 1 0 60 0a30 30 0 1 0 -60 0Z" fill="url(#g7)"/><g clip-path="url(#c8)"><path d="M134 92a30 30 0 1 0 60 0a30 30 0 1 0 -60 0Z" fill="none" stroke="#644b25" stroke-width="14.399999999999999" transform="translate(5 6)" opacity=".55"/><path d="M134 92a30 30 0 1 0 60 0a30 30 0 1 0 -60 0Z" fill="none" stroke="#dec9a2" stroke-width="7.800000000000001" transform="translate(-3 -3)" opacity=".75"/><path d="M134 92a30 30 0 1 0 60 0a30 30 0 1 0 -60 0Z" fill="url(#w9)"/></g><path d="M134 92a30 30 0 1 0 60 0a30 30 0 1 0 -60 0Z" fill="none" stroke="#1A1226" stroke-width="6" stroke-linejoin="round" stroke-linecap="round"/></g><g opacity="1"><path d="M130 44 L138 16 L152 34 L164 10 L176 34 L190 16 L198 44Z" fill="url(#g10)"/><g clip-path="url(#c11)"><path d="M130 44 L138 16 L152 34 L164 10 L176 34 L190 16 L198 44Z" fill="none" stroke="#85642b" stroke-width="14.399999999999999" transform="translate(5 6)" opacity=".55"/><path d="M130 44 L138 16 L152 34 L164 10 L176 34 L190 16 L198 44Z" fill="none" stroke="#f9dea6" stroke-width="7.800000000000001" transform="translate(-3 -3)" opacity=".75"/><path d="M130 44 L138 16 L152 34 L164 10 L176 34 L190 16 L198 44Z" fill="url(#w12)"/></g><path d="M130 44 L138 16 L152 34 L164 10 L176 34 L190 16 L198 44Z" fill="none" stroke="#1A1226" stroke-width="6" stroke-linejoin="round" stroke-linecap="round"/></g><g><path d="M164 70L183.05255888325766 81L173.52627944162882 86.5L164 81Z" fill="#bf9df7"/><path d="M183.05255888325766 81L183.05255888325766 103L173.52627944162882 97.5L173.52627944162882 86.5Z" fill="#a271f3"/><path d="M183.05255888325766 103L164 114L164 103L173.52627944162882 97.5Z" fill="#7641d5"/><path d="M164 114L144.94744111674237 103L154.47372055837118 97.5L164 103Z" fill="#5a32b1"/><path d="M144.94744111674237 103L144.94744111674234 81L154.47372055837118 86.5L154.47372055837118 97.5Z" fill="#6f3ecc"/><path d="M144.94744111674234 81L164 70L164 81L154.47372055837118 86.5Z" fill="#ae82f5"/><path d="M164 81L173.52627944162882 86.5L173.52627944162882 97.5L164 103L154.47372055837118 97.5L154.47372055837118 86.5Z" fill="#9c68f2"/><path d="M164 70L183.05255888325766 81L183.05255888325766 103L164 114L144.94744111674237 103L144.94744111674234 81Z" fill="none" stroke="#1A1226" stroke-width="5" stroke-linejoin="round"/><path d="M154.2897315652868 78.65980933697676L160.86286942056893 74.68184733501872L160.79943328805132 82.6316291318946Z" fill="#fff" opacity=".8"/></g><path d="M206 44Q207.8 52.2 216 54Q207.8 55.8 206 64Q204.2 55.8 196 54Q204.2 52.2 206 44Z" fill="#FFFFFF" stroke="#1A1226" stroke-width="2.5" stroke-linejoin="round"/></svg>