<svg xmlns="http://www.w3.org/2000/svg" viewBox="0 0 256 256"><defs><radialGradient id="r1"><stop offset="0" stop-color="#FF6A1A" stop-opacity="0.35"/><stop offset="1" stop-color="#FF6A1A" stop-opacity="0"/></radialGradient><linearGradient id="g2" x1="0" y1="0" x2="0" y2="1"><stop offset="0" stop-color="#665a71"/><stop offset=".5" stop-color="#2A1A3A"/><stop offset="1" stop-color="#1d122f"/></linearGradient><clipPath id="c3"><path d="M32 178a96 30 0 1 0 192 0a96 30 0 1 0 -192 0Z"/></clipPath><linearGradient id="w4" x1="0" y1="0" x2="0" y2="1"><stop offset="0" stop-color="#fff" stop-opacity="0.45"/><stop offset=".45" stop-color="#fff" stop-opacity="0"/></linearGradient><linearGradient id="g5" x1="0" y1="0" x2="0" y2="1"><stop offset="0" stop-color="#71c094"/><stop offset=".5" stop-color="#3AA86A"/><stop offset="1" stop-color="#277253"/></linearGradient><clipPath id="c6"><path d="M84 150 Q70 100 104 70 Q118 58 140 62 L176 50 L160 72 Q176 84 170 100 L150 96 Q140 110 120 110 Q104 124 110 150Z"/></clipPath><linearGradient id="w7" x1="0" y1="0" x2="0" y2="1"><stop offset="0" stop-color="#fff" stop-opacity="0.45"/><stop offset=".45" stop-color="#fff" stop-opacity="0"/></linearGradient><linearGradient id="g8" x1="0" y1="0" x2="0" y2="1"><stop offset="0" stop-color="#699f7d"/><stop offset=".5" stop-color="#2E7A4A"/><stop offset="1" stop-color="#1f533b"/></linearGradient><clipPath id="c9"><path d="M120 78 L108 50 L128 70Z"/></clipPath><linearGradient id="w10" x1="0" y1="0" x2="0" y2="1"><stop offset="0" stop-color="#fff" stop-opacity="0.45"/><stop offset=".45" stop-color="#fff" stop-opacity="0"/></linearGradient><linearGradient id="g11" x1="0" y1="0" x2="0" y2="1"><stop offset="0" stop-color="#ffeb94"/><stop offset=".5" stop-color="#FFE36A"/><stop offset="1" stop-color="#ad9a53"/></linearGradient><clipPath id="c12"><path d="M137 76a5 5 0 1 0 10 0a5 5 0 1 0 -10 0Z"/></clipPath><linearGradient id="w13" x1="0" y1="0" x2="0" y2="1"><stop offset="0" stop-color="#fff" stop-opacity="0.45"/><stop offset=".45" stop-color="#fff" stop-opacity="0"/></linearGradient><linearGradient id="g14" x1="0" y1="0" x2="0" y2="1"><stop offset="0" stop-color="#ffab5e"/><stop offset=".5" stop-color="#FF8A1F"/><stop offset="1" stop-color="#ad5e1b"/></linearGradient><clipPath id="c15"><path d="M196 83.6Q212.5 105.6 205.9 118.8Q196 126.5 186.1 118.8Q179.5 105.6 196 83.6Z"/></clipPath><linearGradient id="w16" x1="0" y1="0" x2="0" y2="1"><stop offset="0" stop-color="#fff" stop-opacity="0.45"/><stop offset=".45" stop-color="#fff" stop-opacity="0"/></linearGradient><linearGradient id="g17" x1="0" y1="0" x2="0" y2="1"><stop offset="0" stop-color="#ffe97d"/><stop offset=".5" stop-color="#FFE04A"/><stop offset="1" stop-color="#ad983b"/></linearGradient><clipPath id="c18"><path d="M196 103.39999999999999Q204.25 114.39999999999999 200.95 121Q196 124.85 191.05 121Q187.75 114.39999999999999 196 103.39999999999999Z"/></clipPath><linearGradient id="w19" x1="0" y1="0" x2="0" y2="1"><stop offset="0" stop-color="#fff" stop-opacity="0.45"/><stop offset=".45" stop-color="#fff" stop-opacity="0"/></linearGradient></defs><circle cx="128" cy="130" r="120" fill="url(#r1)"/><ellipse cx="128" cy="224" rx="80" ry="11" fill="#000" opacity=".28"/><g opacity="1"><path d="M32 178a96 30 0 1 0 192 0a96 30 0 1 0 -192 0Z" fill="url(#g2)"/><g clip-path="url(#c3)"><path d="M32 178a96 30 0 1 0 192 0a96 30 0 1 0 -192 0Z" fill="none" stroke="#170e2b" stroke-width="14.399999999999999" transform="translate(5 6)" opacity=".55"/><path d="M32 178a96 30 0 1 0 192 0a96 30 0 1 0 -192 0Z" fill="none" stroke="#9f98a6" stroke-width="7.800000000000001" transform="translate(-3 -3)" opacity=".75"/><path d="M32 178a96 30 0 1 0 192 0a96 30 0 1 0 -192 0Z" fill="url(#w4)"/></g><path d="M32 178a96 30 0 1 0 192 0a96 30 0 1 0 -192 0Z" fill="none" stroke="#1A1226" stroke-width="6" stroke-linejoin="round" stroke-linecap="round"/></g><path d="M42 178a86 26 0 1 0 172 0a86 26 0 1 0 -172 0Z" fill="none" stroke="#FFB02E" stroke-width="4" stroke-linecap="round" stroke-linejoin="round" opacity="1"/><path d="M70 178 l8 -8 l8 8 M112 196 v-14 l10 6 M150 196 l8 -14 l8 14 M180 170 h14" fill="none" stroke="#FFB02E" stroke-width="4" stroke-linecap="round" stroke-linejoin="round" opacity="1"/><g opacity="1"><path d="M84 150 Q70 100 104 70 Q118 58 140 62 L176 50 L160 72 Q176 84 170 100 L150 96 Q140 110 120 110 Q104 124 110 150Z" fill="url(#g5)"/><g clip-path="url(#c6)"><path d="M84 150 Q70 100 104 70 Q118 58 140 62 L176 50 L160 72 Q176 84 170 100 L150 96 Q140 110 120 110 Q104 124 110 150Z" fill="none" stroke="#205c49" stroke-width="14.399999999999999" transform="translate(5 6)" opacity=".55"/><path d="M84 150 Q70 100 104 70 Q118 58 140 62 L176 50 L160 72 Q176 84 170 100 L150 96 Q140 110 120 110 Q104 124 110 150Z" fill="none" stroke="#a6d8bc" stroke-width="7.800000000000001" transform="translate(-3 -3)" opacity=".75"/><path d="M84 150 Q70 100 104 70 Q118 58 140 62 L176 50 L160 72 Q176 84 170 100 L150 96 Q140 110 120 110 Q104 124 110 150Z" fill="url(#w7)"/></g><path d="M84 150 Q70 100 104 70 Q118 58 140 62 L176 50 L160 72 Q176 84 170 100 L150 96 Q140 110 120 110 Q104 124 110 150Z" fill="none" stroke="#1A1226" stroke-width="6" stroke-linejoin="round" stroke-linecap="round"/></g><g opacity="1"><path d="M120 78 L108 50 L128 70Z" fill="url(#g8)"/><g clip-path="url(#c9)"><path d="M120 78 L108 50 L128 70Z" fill="none" stroke="#194335" stroke-width="14.399999999999999" transform="translate(5 6)" opacity=".55"/><path d="M120 78 L108 50 L128 70Z" fill="none" stroke="#a1c3ae" stroke-width="7.800000000000001" transform="translate(-3 -3)" opacity=".75"/><path d="M120 78 L108 50 L128 70Z" fill="url(#w10)"/></g><path d="M120 78 L108 50 L128 70Z" fill="none" stroke="#1A1226" stroke-width="6" stroke-linejoin="round" stroke-linecap="round"/></g><g opacity="1"><path d="M137 76a5 5 0 1 0 10 0a5 5 0 1 0 -10 0Z" fill="url(#g11)"/><g clip-path="url(#c12)"><path d="M137 76a5 5 0 1 0 10 0a5 5 0 1 0 -10 0Z" fill="none" stroke="#8c7d49" stroke-width="4.8" transform="translate(5 6)" opacity=".55"/><path d="M137 76a5 5 0 1 0 10 0a5 5 0 1 0 -10 0Z" fill="none" stroke="#fff2bc" stroke-width="2.6" transform="translate(-3 -3)" opacity=".75"/><path d="M137 76a5 5 0 1 0 10 0a5 5 0 1 0 -10 0Z" fill="url(#w13)"/></g><path d="M137 76a5 5 0 1 0 10 0a5 5 0 1 0 -10 0Z" fill="none" stroke="#1A1226" stroke-width="2" stroke-linejoin="round" stroke-linecap="round"/></g><g opacity="1"><path d="M196 83.6Q212.5 105.6 205.9 118.8Q196 126.5 186.1 118.8Q179.5 105.6 196 83.6Z" fill="url(#g14)"/><g clip-path="url(#c15)"><path d="M196 83.6Q212.5 105.6 205.9 118.8Q196 126.5 186.1 118.8Q179.5 105.6 196 83.6Z" fill="none" stroke="#8c4c19" stroke-width="9.6" transform="translate(5 6)" opacity=".55"/><path d="M196 83.6Q212.5 105.6 205.9 118.8Q196 126.5 186.1 118.8Q179.5 105.6 196 83.6Z" fill="none" stroke="#ffca9a" stroke-width="5.2" transform="translate(-3 -3)" opacity=".75"/><path d="M196 83.6Q212.5 105.6 205.9 118.8Q196 126.5 186.1 118.8Q179.5 105.6 196 83.6Z" fill="url(#w16)"/></g><path d="M196 83.6Q212.5 105.6 205.9 118.8Q196 126.5 186.1 118.8Q179.5 105.6 196 83.6Z" fill="none" stroke="#1A1226" stroke-width="4" stroke-linejoin="round" stroke-linecap="round"/></g><g opacity="1"><path d="M196 103.39999999999999Q204.25 114.39999999999999 200.95 121Q196 124.85 191.05 121Q187.75 114.39999999999999 196 103.39999999999999Z" fill="url(#g17)"/><g clip-path="url(#c18)"><path d="M196 103.39999999999999Q204.25 114.39999999999999 200.95 121Q196 124.85 191.05 121Q187.75 114.39999999999999 196 103.39999999999999Z" fill="url(#w19)"/></g></g></svg>