<svg xmlns="http://www.w3.org/2000/svg" viewBox="0 0 256 256"><defs><radialGradient id="r1"><stop offset="0" stop-color="#B77BFF" stop-opacity="0.45"/><stop offset="1" stop-color="#B77BFF" stop-opacity="0"/></radialGradient></defs><circle cx="128" cy="120" r="110" fill="url(#r1)"/><ellipse cx="128" cy="224" rx="80" ry="11" fill="#000" opacity=".28"/><path d="M100 210 C160 170 96 140 156 110 C216 80 96 60 156 30" fill="none" stroke="#1A1226" stroke-width="14" stroke-linecap="round" stroke-linejoin="round" opacity="1"/><path d="M100 210 C160 170 96 140 156 110 C216 80 96 60 156 30" fill="none" stroke="#B77BFF" stroke-width="8" stroke-linecap="round" stroke-linejoin="round" opacity="1"/><path d="M156 210 C96 170 160 140 100 110 C40 80 160 60 100 30" fill="none" stroke="#1A1226" stroke-width="14" stroke-linecap="round" stroke-linejoin="round" opacity="1"/><path d="M156 210 C96 170 160 140 100 110 C40 80 160 60 100 30" fill="none" stroke="#5AE6FF" stroke-width="8" stroke-linecap="round" stroke-linejoin="round" opacity="1"/><path d="M112 180 H144" fill="none" stroke="#F4F2FF" stroke-width="4" stroke-linecap="round" stroke-linejoin="round" opacity="1"/><path d="M112 124 H144" fill="none" stroke="#F4F2FF" stroke-width="4" stroke-linecap="round" stroke-linejoin="round" opacity="1"/><path d="M112 70 H144" fill="none" stroke="#F4F2FF" stroke-width="4" stroke-linecap="round" stroke-linejoin="round" opacity="1"/><path d="M200 30Q202.52 41.48 214 44Q202.52 46.52 200 58Q197.48 46.52 186 44Q197.48 41.48 200 30Z" fill="#FFFFFF" stroke="#1A1226" stroke-width="2.5" stroke-linejoin="round"/><path d="M56 49Q57.62 56.38 65 58Q57.62 59.62 56 67Q54.38 59.62 47 58Q54.38 56.38 56 49Z" fill="#FFFFFF" stroke="#1A1226" stroke-width="2.5" stroke-linejoin="round"/></svg>