<svg xmlns="http://www.w3.org/2000/svg" viewBox="0 0 256 256"><defs><radialGradient id="r1"><stop offset="0" stop-color="#7FD8FF" stop-opacity="0.4"/><stop offset="1" stop-color="#7FD8FF" stop-opacity="0"/></radialGradient><linearGradient id="g2" x1="0" y1="0" x2="1" y2="0"><stop offset="0" stop-color="#baedff"/><stop offset=".5" stop-color="#9FE6FF"/><stop offset="1" stop-color="#6c9cc2"/></linearGradient><clipPath id="c3"><path d="M72 214 L96 70 L120 214Z"/></clipPath><linearGradient id="w4" x1="0" y1="0" x2="0" y2="1"><stop offset="0" stop-color="#fff" stop-opacity="0.45"/><stop offset=".45" stop-color="#fff" stop-opacity="0"/></linearGradient><linearGradient id="g5" x1="0" y1="0" x2="1" y2="0"><stop offset="0" stop-color="#d1f5ff"/><stop offset=".5" stop-color="#BFF1FF"/><stop offset="1" stop-color="#82a4c2"/></linearGradient><clipPath id="c6"><path d="M112 214 L140 36 L168 214Z"/></clipPath><linearGradient id="w7" x1="0" y1="0" x2="0" y2="1"><stop offset="0" stop-color="#fff" stop-opacity="0.45"/><stop offset=".45" stop-color="#fff" stop-opacity="0"/></linearGradient><linearGradient id="g8" x1="0" y1="0" x2="1" y2="0"><stop offset="0" stop-color="#aee3ff"/><stop offset=".5" stop-color="#8FD8FF"/><stop offset="1" stop-color="#6193c2"/></linearGradient><clipPath id="c9"><path d="M156 214 L182 96 L204 214Z"/></clipPath><linearGradient id="w10" x1="0" y1="0" x2="0" y2="1"><stop offset="0" stop-color="#fff" stop-opacity="0.45"/><stop offset=".45" stop-color="#fff" stop-opacity="0"/></linearGradient><linearGradient id="g11" x1="0" y1="0" x2="1" y2="0"><stop offset="0" stop-color="#aee3ff"/><stop offset=".5" stop-color="#8FD8FF"/><stop offset="1" stop-color="#6193c2"/></linearGradient><clipPath id="c12"><path d="M44 214 L60 140 L78 214Z"/></clipPath><linearGradient id="w13" x1="0" y1="0" x2="0" y2="1"><stop offset="0" stop-color="#fff" stop-opacity="0.45"/><stop offset=".45" stop-color="#fff" stop-opacity="0"/></linearGradient></defs><circle cx="128" cy="140" r="110" fill="url(#r1)"/><ellipse cx="128" cy="224" rx="80" ry="11" fill="#000" opacity=".28"/><g opacity="1"><path d="M72 214 L96 70 L120 214Z" fill="url(#g2)"/><g clip-path="url(#c3)"><path d="M72 214 L96 70 L120 214Z" fill="none" stroke="#577fa9" stroke-width="14.399999999999999" transform="translate(5 6)" opacity=".55"/><path d="M72 214 L96 70 L120 214Z" fill="none" stroke="#d4f4ff" stroke-width="7.800000000000001" transform="translate(-3 -3)" opacity=".75"/><path d="M72 214 L96 70 L120 214Z" fill="url(#w4)"/></g><path d="M72 214 L96 70 L120 214Z" fill="none" stroke="#1A1226" stroke-width="6" stroke-linejoin="round" stroke-linecap="round"/></g><g opacity="1"><path d="M112 214 L140 36 L168 214Z" fill="url(#g5)"/><g clip-path="url(#c6)"><path d="M112 214 L140 36 L168 214Z" fill="none" stroke="#6985a9" stroke-width="14.399999999999999" transform="translate(5 6)" opacity=".55"/><path d="M112 214 L140 36 L168 214Z" fill="none" stroke="#e2f9ff" stroke-width="7.800000000000001" transform="translate(-3 -3)" opacity=".75"/><path d="M112 214 L140 36 L168 214Z" fill="url(#w7)"/></g><path d="M112 214 L140 36 L168 214Z" fill="none" stroke="#1A1226" stroke-width="6" stroke-linejoin="round" stroke-linecap="round"/></g><g opacity="1"><path d="M156 214 L182 96 L204 214Z" fill="url(#g8)"/><g clip-path="url(#c9)"><path d="M156 214 L182 96 L204 214Z" fill="none" stroke="#4f77a9" stroke-width="14.399999999999999" transform="translate(5 6)" opacity=".55"/><path d="M156 214 L182 96 L204 214Z" fill="none" stroke="#cdedff" stroke-width="7.800000000000001" transform="translate(-3 -3)" opacity=".75"/><path d="M156 214 L182 96 L204 214Z" fill="url(#w10)"/></g><path d="M156 214 L182 96 L204 214Z" fill="none" stroke="#1A1226" stroke-width="6" stroke-linejoin="round" stroke-linecap="round"/></g><g opacity="1"><path d="M44 214 L60 140 L78 214Z" fill="url(#g11)"/><g clip-path="url(#c12)"><path d="M44 214 L60 140 L78 214Z" fill="none" stroke="#4f77a9" stroke-width="14.399999999999999" transform="translate(5 6)" opacity=".55"/><path d="M44 214 L60 140 L78 214Z" fill="none" stroke="#cdedff" stroke-width="7.800000000000001" transform="translate(-3 -3)" opacity=".75"/><path d="M44 214 L60 140 L78 214Z" fill="url(#w13)"/></g><path d="M44 214 L60 140 L78 214Z" fill="none" stroke="#1A1226" stroke-width="6" stroke-linejoin="round" stroke-linecap="round"/></g><path d="M140 44 L140 206 M96 80 L96 206" fill="none" stroke="#FFFFFF" stroke-width="3" stroke-linecap="round" stroke-linejoin="round" opacity="0.7"/><path d="M206 49Q207.98 58.02 217 60Q207.98 61.98 206 71Q204.02 61.98 195 60Q204.02 58.02 206 49Z" fill="#FFFFFF" stroke="#1A1226" stroke-width="2.5" stroke-linejoin="round"/></svg>