<svg xmlns="http://www.w3.org/2000/svg" viewBox="0 0 256 256"><defs><radialGradient id="r1"><stop offset="0" stop-color="#FFE14A" stop-opacity="0.35"/><stop offset="1" stop-color="#FFE14A" stop-opacity="0"/></radialGradient><linearGradient id="g2" x1="0" y1="0" x2="0" y2="1"><stop offset="0" stop-color="#a2acc0"/><stop offset=".5" stop-color="#7E8CA8"/><stop offset="1" stop-color="#565f81"/></linearGradient><clipPath id="c3"><path d="M52 104 Q44 58 92 58 Q108 26 150 38 Q194 30 202 70 Q236 78 226 106 Q228 130 198 130 L70 130 Q40 128 52 104Z"/></clipPath><linearGradient id="w4" x1="0" y1="0" x2="0" y2="1"><stop offset="0" stop-color="#fff" stop-opacity="0.45"/><stop offset=".45" stop-color="#fff" stop-opacity="0"/></linearGradient><linearGradient id="g5" x1="0" y1="0" x2="0" y2="1"><stop offset="0" stop-color="#ffe97d"/><stop offset=".5" stop-color="#FFE14A"/><stop offset="1" stop-color="#ad993b"/></linearGradient><clipPath id="c6"><path d="M136.8 124L110.4 176.8L129.6 176.8L120 220L156 162.4L136.8 162.4Z"/></clipPath><linearGradient id="w7" x1="0" y1="0" x2="0" y2="1"><stop offset="0" stop-color="#fff" stop-opacity="0.45"/><stop offset=".45" stop-color="#fff" stop-opacity="0"/></linearGradient></defs><circle cx="128" cy="150" r="110" fill="url(#r1)"/><ellipse cx="128" cy="224" rx="80" ry="11" fill="#000" opacity=".28"/><g opacity="1"><path d="M52 104 Q44 58 92 58 Q108 26 150 38 Q194 30 202 70 Q236 78 226 106 Q228 130 198 130 L70 130 Q40 128 52 104Z" fill="url(#g2)"/><g clip-path="url(#c3)"><path d="M52 104 Q44 58 92 58 Q108 26 150 38 Q194 30 202 70 Q236 78 226 106 Q228 130 198 130 L70 130 Q40 128 52 104Z" fill="none" stroke="#454d71" stroke-width="14.399999999999999" transform="translate(5 6)" opacity=".55"/><path d="M52 104 Q44 58 92 58 Q108 26 150 38 Q194 30 202 70 Q236 78 226 106 Q228 130 198 130 L70 130 Q40 128 52 104Z" fill="none" stroke="#c5cbd8" stroke-width="7.800000000000001" transform="translate(-3 -3)" opacity=".75"/><path d="M52 104 Q44 58 92 58 Q108 26 150 38 Q194 30 202 70 Q236 78 226 106 Q228 130 198 130 L70 130 Q40 128 52 104Z" fill="url(#w4)"/></g><path d="M52 104 Q44 58 92 58 Q108 26 150 38 Q194 30 202 70 Q236 78 226 106 Q228 130 198 130 L70 130 Q40 128 52 104Z" fill="none" stroke="#1A1226" stroke-width="6" stroke-linejoin="round" stroke-linecap="round"/></g><g opacity="1"><path d="M136.8 124L110.4 176.8L129.6 176.8L120 220L156 162.4L136.8 162.4Z" fill="url(#g5)"/><g clip-path="url(#c6)"><path d="M136.8 124L110.4 176.8L129.6 176.8L120 220L156 162.4L136.8 162.4Z" fill="none" stroke="#8c7c35" stroke-width="12" transform="translate(5 6)" opacity=".55"/><path d="M136.8 124L110.4 176.8L129.6 176.8L120 220L156 162.4L136.8 162.4Z" fill="none" stroke="#fff2ae" stroke-width="6.5" transform="translate(-3 -3)" opacity=".75"/><path d="M136.8 124L110.4 176.8L129.6 176.8L120 220L156 162.4L136.8 162.4Z" fill="url(#w7)"/></g><path d="M136.8 124L110.4 176.8L129.6 176.8L120 220L156 162.4L136.8 162.4Z" fill="none" stroke="#1A1226" stroke-width="5" stroke-linejoin="round" stroke-linecap="round"/></g></svg>