<svg xmlns="http://www.w3.org/2000/svg" viewBox="0 0 256 256"><defs><linearGradient id="g1" x1="0" y1="0" x2="1" y2="0"><stop offset="0" stop-color="#c66471"/><stop offset=".5" stop-color="#B0283A"/><stop offset="1" stop-color="#781b2f"/></linearGradient><clipPath id="c2"><path d="M58 150 Q60 84 128 72 Q196 84 198 150Z"/></clipPath><linearGradient id="w3" x1="0" y1="0" x2="0" y2="1"><stop offset="0" stop-color="#fff" stop-opacity="0.45"/><stop offset=".45" stop-color="#fff" stop-opacity="0"/></linearGradient><linearGradient id="g4" x1="0" y1="0" x2="0" y2="1"><stop offset="0" stop-color="#ab8871"/><stop offset=".5" stop-color="#8A5A3A"/><stop offset="1" stop-color="#5e3d2f"/></linearGradient><clipPath id="c5"><path d="M46 150 Q128 128 210 150 L214 186 Q128 214 42 186Z"/></clipPath><linearGradient id="w6" x1="0" y1="0" x2="0" y2="1"><stop offset="0" stop-color="#fff" stop-opacity="0.45"/><stop offset=".45" stop-color="#fff" stop-opacity="0"/></linearGradient><clipPath id="k7"><path d="M46 150 Q128 128 210 150 L214 186 Q128 214 42 186Z"/></clipPath><linearGradient id="g8" x1="0" y1="0" x2="0" y2="1"><stop offset="0" stop-color="#f7f6f4"/><stop offset=".5" stop-color="#F4F2F0"/><stop offset="1" stop-color="#a6a5b6"/></linearGradient><clipPath id="c9"><path d="M128 76 Q110 40 118 14 Q126 34 130 40 Q134 20 146 12 Q142 44 128 76Z"/></clipPath><linearGradient id="w10" x1="0" y1="0" x2="0" y2="1"><stop offset="0" stop-color="#fff" stop-opacity="0.45"/><stop offset=".45" stop-color="#fff" stop-opacity="0"/></linearGradient><linearGradient id="g11" x1="0" y1="0" x2="0" y2="1"><stop offset="0" stop-color="#ede9e1"/><stop offset=".5" stop-color="#E6E0D6"/><stop offset="1" stop-color="#9c98a3"/></linearGradient><clipPath id="c12"><path d="M128 76 Q150 46 168 36 Q156 60 128 76Z"/></clipPath><linearGradient id="w13" x1="0" y1="0" x2="0" y2="1"><stop offset="0" stop-color="#fff" stop-opacity="0.45"/><stop offset=".45" stop-color="#fff" stop-opacity="0"/></linearGradient><linearGradient id="g14" x1="0" y1="0" x2="0" y2="1"><stop offset="0" stop-color="#ede9e1"/><stop offset=".5" stop-color="#E6E0D6"/><stop offset="1" stop-color="#9c98a3"/></linearGradient><clipPath id="c15"><path d="M128 76 Q104 52 88 44 Q100 66 128 76Z"/></clipPath><linearGradient id="w16" x1="0" y1="0" x2="0" y2="1"><stop offset="0" stop-color="#fff" stop-opacity="0.45"/><stop offset=".45" stop-color="#fff" stop-opacity="0"/></linearGradient><linearGradient id="g17" x1="0" y1="0" x2="0" y2="1"><stop offset="0" stop-color="#f6ca71"/><stop offset=".5" stop-color="#F2B53A"/><stop offset="1" stop-color="#a57b2f"/></linearGradient><clipPath id="c18"><path d="M121 76a7 7 0 1 0 14 0a7 7 0 1 0 -14 0Z"/></clipPath><linearGradient id="w19" x1="0" y1="0" x2="0" y2="1"><stop offset="0" stop-color="#fff" stop-opacity="0.45"/><stop offset=".45" stop-color="#fff" stop-opacity="0"/></linearGradient></defs><ellipse cx="128" cy="222" rx="84" ry="11" fill="#000" opacity=".28"/><g opacity="1"><path d="M58 150 Q60 84 128 72 Q196 84 198 150Z" fill="url(#g1)"/><g clip-path="url(#c2)"><path d="M58 150 Q60 84 128 72 Q196 84 198 150Z" fill="none" stroke="#61162b" stroke-width="14.399999999999999" transform="translate(5 6)" opacity=".55"/><path d="M58 150 Q60 84 128 72 Q196 84 198 150Z" fill="none" stroke="#db9ea6" stroke-width="7.800000000000001" transform="translate(-3 -3)" opacity=".75"/><path d="M58 150 Q60 84 128 72 Q196 84 198 150Z" fill="url(#w3)"/></g><path d="M58 150 Q60 84 128 72 Q196 84 198 150Z" fill="none" stroke="#1A1226" stroke-width="6" stroke-linejoin="round" stroke-linecap="round"/></g><path d="M128 76 V150 M92 90 L100 150 M164 90 L156 150" fill="none" stroke="#F2B53A" stroke-width="3" stroke-linecap="round" stroke-linejoin="round" opacity="0.8"/><g opacity="1"><path d="M46 150 Q128 128 210 150 L214 186 Q128 214 42 186Z" fill="url(#g4)"/><g clip-path="url(#c5)"><path d="M46 150 Q128 128 210 150 L214 186 Q128 214 42 186Z" fill="none" stroke="#4c322b" stroke-width="14.399999999999999" transform="translate(5 6)" opacity=".55"/><path d="M46 150 Q128 128 210 150 L214 186 Q128 214 42 186Z" fill="none" stroke="#cab5a6" stroke-width="7.800000000000001" transform="translate(-3 -3)" opacity=".75"/><path d="M46 150 Q128 128 210 150 L214 186 Q128 214 42 186Z" fill="url(#w6)"/></g><path d="M46 150 Q128 128 210 150 L214 186 Q128 214 42 186Z" fill="none" stroke="#1A1226" stroke-width="6" stroke-linejoin="round" stroke-linecap="round"/></g><g clip-path="url(#k7)"><path d="M50 146 q4 20 -2 44" fill="none" stroke="#6A3E22" stroke-width="3" stroke-linecap="round" stroke-linejoin="round" opacity="0.6"/><path d="M62 146 q4 20 -2 44" fill="none" stroke="#6A3E22" stroke-width="3" stroke-linecap="round" stroke-linejoin="round" opacity="0.6"/><path d="M74 146 q4 20 -2 44" fill="none" stroke="#6A3E22" stroke-width="3" stroke-linecap="round" stroke-linejoin="round" opacity="0.6"/><path d="M86 146 q4 20 -2 44" fill="none" stroke="#6A3E22" stroke-width="3" stroke-linecap="round" stroke-linejoin="round" opacity="0.6"/><path d="M98 146 q4 20 -2 44" fill="none" stroke="#6A3E22" stroke-width="3" stroke-linecap="round" stroke-linejoin="round" opacity="0.6"/><path d="M110 146 q4 20 -2 44" fill="none" stroke="#6A3E22" stroke-width="3" stroke-linecap="round" stroke-linejoin="round" opacity="0.6"/><path d="M122 146 q4 20 -2 44" fill="none" stroke="#6A3E22" stroke-width="3" stroke-linecap="round" stroke-linejoin="round" opacity="0.6"/><path d="M134 146 q4 20 -2 44" fill="none" stroke="#6A3E22" stroke-width="3" stroke-linecap="round" stroke-linejoin="round" opacity="0.6"/><path d="M146 146 q4 20 -2 44" fill="none" stroke="#6A3E22" stroke-width="3" stroke-linecap="round" stroke-linejoin="round" opacity="0.6"/><path d="M158 146 q4 20 -2 44" fill="none" stroke="#6A3E22" stroke-width="3" stroke-linecap="round" stroke-linejoin="round" opacity="0.6"/><path d="M170 146 q4 20 -2 44" fill="none" stroke="#6A3E22" stroke-width="3" stroke-linecap="round" stroke-linejoin="round" opacity="0.6"/><path d="M182 146 q4 20 -2 44" fill="none" stroke="#6A3E22" stroke-width="3" stroke-linecap="round" stroke-linejoin="round" opacity="0.6"/><path d="M194 146 q4 20 -2 44" fill="none" stroke="#6A3E22" stroke-width="3" stroke-linecap="round" stroke-linejoin="round" opacity="0.6"/><path d="M206 146 q4 20 -2 44" fill="none" stroke="#6A3E22" stroke-width="3" stroke-linecap="round" stroke-linejoin="round" opacity="0.6"/></g><g opacity="1"><path d="M128 76 Q110 40 118 14 Q126 34 130 40 Q134 20 146 12 Q142 44 128 76Z" fill="url(#g8)"/><g clip-path="url(#c9)"><path d="M128 76 Q110 40 118 14 Q126 34 130 40 Q134 20 146 12 Q142 44 128 76Z" fill="none" stroke="#86859f" stroke-width="14.399999999999999" transform="translate(5 6)" opacity=".55"/><path d="M128 76 Q110 40 118 14 Q126 34 130 40 Q134 20 146 12 Q142 44 128 76Z" fill="none" stroke="#faf9f8" stroke-width="7.800000000000001" transform="translate(-3 -3)" opacity=".75"/><path d="M128 76 Q110 40 118 14 Q126 34 130 40 Q134 20 146 12 Q142 44 128 76Z" fill="url(#w10)"/></g><path d="M128 76 Q110 40 118 14 Q126 34 130 40 Q134 20 146 12 Q142 44 128 76Z" fill="none" stroke="#1A1226" stroke-width="6" stroke-linejoin="round" stroke-linecap="round"/></g><g opacity="1"><path d="M128 76 Q150 46 168 36 Q156 60 128 76Z" fill="url(#g11)"/><g clip-path="url(#c12)"><path d="M128 76 Q150 46 168 36 Q156 60 128 76Z" fill="none" stroke="#7f7b8e" stroke-width="14.399999999999999" transform="translate(5 6)" opacity=".55"/><path d="M128 76 Q150 46 168 36 Q156 60 128 76Z" fill="none" stroke="#f4f1ed" stroke-width="7.800000000000001" transform="translate(-3 -3)" opacity=".75"/><path d="M128 76 Q150 46 168 36 Q156 60 128 76Z" fill="url(#w13)"/></g><path d="M128 76 Q150 46 168 36 Q156 60 128 76Z" fill="none" stroke="#1A1226" stroke-width="6" stroke-linejoin="round" stroke-linecap="round"/></g><g opacity="1"><path d="M128 76 Q104 52 88 44 Q100 66 128 76Z" fill="url(#g14)"/><g clip-path="url(#c15)"><path d="M128 76 Q104 52 88 44 Q100 66 128 76Z" fill="none" stroke="#7f7b8e" stroke-width="14.399999999999999" transform="translate(5 6)" opacity=".55"/><path d="M128 76 Q104 52 88 44 Q100 66 128 76Z" fill="none" stroke="#f4f1ed" stroke-width="7.800000000000001" transform="translate(-3 -3)" opacity=".75"/><path d="M128 76 Q104 52 88 44 Q100 66 128 76Z" fill="url(#w16)"/></g><path d="M128 76 Q104 52 88 44 Q100 66 128 76Z" fill="none" stroke="#1A1226" stroke-width="6" stroke-linejoin="round" stroke-linecap="round"/></g><g opacity="1"><path d="M121 76a7 7 0 1 0 14 0a7 7 0 1 0 -14 0Z" fill="url(#g17)"/><g clip-path="url(#c18)"><path d="M121 76a7 7 0 1 0 14 0a7 7 0 1 0 -14 0Z" fill="none" stroke="#85642b" stroke-width="14.399999999999999" transform="translate(5 6)" opacity=".55"/><path d="M121 76a7 7 0 1 0 14 0a7 7 0 1 0 -14 0Z" fill="none" stroke="#f9dea6" stroke-width="7.800000000000001" transform="translate(-3 -3)" opacity=".75"/><path d="M121 76a7 7 0 1 0 14 0a7 7 0 1 0 -14 0Z" fill="url(#w19)"/></g><path d="M121 76a7 7 0 1 0 14 0a7 7 0 1 0 -14 0Z" fill="none" stroke="#1A1226" stroke-width="6" stroke-linejoin="round" stroke-linecap="round"/></g></svg>