<svg xmlns="http://www.w3.org/2000/svg" viewBox="0 0 256 256"><defs><radialGradient id="r1"><stop offset="0" stop-color="#FFB02E" stop-opacity="0.35"/><stop offset="1" stop-color="#FFB02E" stop-opacity="0"/></radialGradient><linearGradient id="g2" x1="0" y1="0" x2="0" y2="1"><stop offset="0" stop-color="#ed9e5d"/><stop offset=".5" stop-color="#E6781E"/><stop offset="1" stop-color="#9c521a"/></linearGradient><clipPath id="c3"><path d="M40 138a44 60 0 1 0 88 0a44 60 0 1 0 -88 0Z"/></clipPath><linearGradient id="w4" x1="0" y1="0" x2="0" y2="1"><stop offset="0" stop-color="#fff" stop-opacity="0.45"/><stop offset=".45" stop-color="#fff" stop-opacity="0"/></linearGradient><linearGradient id="g5" x1="0" y1="0" x2="0" y2="1"><stop offset="0" stop-color="#ed9e5d"/><stop offset=".5" stop-color="#E6781E"/><stop offset="1" stop-color="#9c521a"/></linearGradient><clipPath id="c6"><path d="M128 138a44 60 0 1 0 88 0a44 60 0 1 0 -88 0Z"/></clipPath><linearGradient id="w7" x1="0" y1="0" x2="0" y2="1"><stop offset="0" stop-color="#fff" stop-opacity="0.45"/><stop offset=".45" stop-color="#fff" stop-opacity="0"/></linearGradient><linearGradient id="g8" x1="0" y1="0" x2="0" y2="1"><stop offset="0" stop-color="#f6ab63"/><stop offset=".5" stop-color="#F28A26"/><stop offset="1" stop-color="#a55e20"/></linearGradient><clipPath id="c9"><path d="M76 136a52 66 0 1 0 104 0a52 66 0 1 0 -104 0Z"/></clipPath><linearGradient id="w10" x1="0" y1="0" x2="0" y2="1"><stop offset="0" stop-color="#fff" stop-opacity="0.45"/><stop offset=".45" stop-color="#fff" stop-opacity="0"/></linearGradient><linearGradient id="g11" x1="0" y1="0" x2="0" y2="1"><stop offset="0" stop-color="#7d9f69"/><stop offset=".5" stop-color="#4A7A2E"/><stop offset="1" stop-color="#325326"/></linearGradient><clipPath id="c12"><path d="M122 76 Q124 52 140 44 L146 52 Q134 60 134 78Z"/></clipPath><linearGradient id="w13" x1="0" y1="0" x2="0" y2="1"><stop offset="0" stop-color="#fff" stop-opacity="0.45"/><stop offset=".45" stop-color="#fff" stop-opacity="0"/></linearGradient></defs><ellipse cx="128" cy="222" rx="84" ry="11" fill="#000" opacity=".28"/><circle cx="128" cy="130" r="90" fill="url(#r1)"/><g opacity="1"><path d="M40 138a44 60 0 1 0 88 0a44 60 0 1 0 -88 0Z" fill="url(#g2)"/><g clip-path="url(#c3)"><path d="M40 138a44 60 0 1 0 88 0a44 60 0 1 0 -88 0Z" fill="none" stroke="#7f4219" stroke-width="14.399999999999999" transform="translate(5 6)" opacity=".55"/><path d="M40 138a44 60 0 1 0 88 0a44 60 0 1 0 -88 0Z" fill="none" stroke="#f4c29a" stroke-width="7.800000000000001" transform="translate(-3 -3)" opacity=".75"/><path d="M40 138a44 60 0 1 0 88 0a44 60 0 1 0 -88 0Z" fill="url(#w4)"/></g><path d="M40 138a44 60 0 1 0 88 0a44 60 0 1 0 -88 0Z" fill="none" stroke="#1A1226" stroke-width="6" stroke-linejoin="round" stroke-linecap="round"/></g><g opacity="1"><path d="M128 138a44 60 0 1 0 88 0a44 60 0 1 0 -88 0Z" fill="url(#g5)"/><g clip-path="url(#c6)"><path d="M128 138a44 60 0 1 0 88 0a44 60 0 1 0 -88 0Z" fill="none" stroke="#7f4219" stroke-width="14.399999999999999" transform="translate(5 6)" opacity=".55"/><path d="M128 138a44 60 0 1 0 88 0a44 60 0 1 0 -88 0Z" fill="none" stroke="#f4c29a" stroke-width="7.800000000000001" transform="translate(-3 -3)" opacity=".75"/><path d="M128 138a44 60 0 1 0 88 0a44 60 0 1 0 -88 0Z" fill="url(#w7)"/></g><path d="M128 138a44 60 0 1 0 88 0a44 60 0 1 0 -88 0Z" fill="none" stroke="#1A1226" stroke-width="6" stroke-linejoin="round" stroke-linecap="round"/></g><g opacity="1"><path d="M76 136a52 66 0 1 0 104 0a52 66 0 1 0 -104 0Z" fill="url(#g8)"/><g clip-path="url(#c9)"><path d="M76 136a52 66 0 1 0 104 0a52 66 0 1 0 -104 0Z" fill="none" stroke="#854c1e" stroke-width="14.399999999999999" transform="translate(5 6)" opacity=".55"/><path d="M76 136a52 66 0 1 0 104 0a52 66 0 1 0 -104 0Z" fill="none" stroke="#f9ca9d" stroke-width="7.800000000000001" transform="translate(-3 -3)" opacity=".75"/><path d="M76 136a52 66 0 1 0 104 0a52 66 0 1 0 -104 0Z" fill="url(#w10)"/></g><path d="M76 136a52 66 0 1 0 104 0a52 66 0 1 0 -104 0Z" fill="none" stroke="#1A1226" stroke-width="6" stroke-linejoin="round" stroke-linecap="round"/></g><g opacity="1"><path d="M122 76 Q124 52 140 44 L146 52 Q134 60 134 78Z" fill="url(#g11)"/><g clip-path="url(#c12)"><path d="M122 76 Q124 52 140 44 L146 52 Q134 60 134 78Z" fill="none" stroke="#294323" stroke-width="14.399999999999999" transform="translate(5 6)" opacity=".55"/><path d="M122 76 Q124 52 140 44 L146 52 Q134 60 134 78Z" fill="none" stroke="#aec3a1" stroke-width="7.800000000000001" transform="translate(-3 -3)" opacity=".75"/><path d="M122 76 Q124 52 140 44 L146 52 Q134 60 134 78Z" fill="url(#w13)"/></g><path d="M122 76 Q124 52 140 44 L146 52 Q134 60 134 78Z" fill="none" stroke="#1A1226" stroke-width="6" stroke-linejoin="round" stroke-linecap="round"/></g><path d="M92 118 L110 118 L101 102Z M146 118 L164 118 L155 102Z" fill="#FFE36A" opacity="1"/><path d="M88 150 Q128 186 168 150 L160 160 L150 152 L140 164 L128 154 L116 164 L106 152 L96 160Z" fill="#FFE36A" opacity="1"/></svg>