<svg xmlns="http://www.w3.org/2000/svg" viewBox="0 0 256 256"><defs><linearGradient id="g1" x1="0" y1="0" x2="0" y2="1"><stop offset="0" stop-color="#66606e"/><stop offset=".5" stop-color="#2A2236"/><stop offset="1" stop-color="#1d172c"/></linearGradient><clipPath id="c2"><path d="M16 186a112 26 0 1 0 224 0a112 26 0 1 0 -224 0Z"/></clipPath><linearGradient id="w3" x1="0" y1="0" x2="0" y2="1"><stop offset="0" stop-color="#fff" stop-opacity="0.45"/><stop offset=".45" stop-color="#fff" stop-opacity="0"/></linearGradient><linearGradient id="g4" x1="0" y1="0" x2="0" y2="1"><stop offset="0" stop-color="#6e6778"/><stop offset=".5" stop-color="#352C44"/><stop offset="1" stop-color="#241e36"/></linearGradient><clipPath id="c5"><path d="M66 182 Q98 120 110 76 Q116 40 176 30 Q146 54 150 84 Q162 136 190 182 Q128 202 66 182Z"/></clipPath><linearGradient id="w6" x1="0" y1="0" x2="0" y2="1"><stop offset="0" stop-color="#fff" stop-opacity="0.45"/><stop offset=".45" stop-color="#fff" stop-opacity="0"/></linearGradient><linearGradient id="g7" x1="0" y1="0" x2="1" y2="0"><stop offset="0" stop-color="#ab7ff4"/><stop offset=".5" stop-color="#8B4DF0"/><stop offset="1" stop-color="#5f34b6"/></linearGradient><clipPath id="c8"><path d="M66 164L66 180A62 16 0 0 0 190 180L190 164A62 16 0 0 1 66 164Z"/></clipPath><linearGradient id="w9" x1="0" y1="0" x2="0" y2="1"><stop offset="0" stop-color="#fff" stop-opacity="0.2"/><stop offset=".45" stop-color="#fff" stop-opacity="0"/></linearGradient><linearGradient id="g10" x1="0" y1="0" x2="0" y2="1"><stop offset="0" stop-color="#f6ca71"/><stop offset=".5" stop-color="#F2B53A"/><stop offset="1" stop-color="#a57b2f"/></linearGradient><clipPath id="c11"><path d="M118 164h20a4 4 0 0 1 4 4v14a4 4 0 0 1 -4 4h-20a4 4 0 0 1 -4 -4v-14a4 4 0 0 1 4 -4Z"/></clipPath><linearGradient id="w12" x1="0" y1="0" x2="0" y2="1"><stop offset="0" stop-color="#fff" stop-opacity="0.45"/><stop offset=".45" stop-color="#fff" stop-opacity="0"/></linearGradient><linearGradient id="g13" x1="0" y1="0" x2="0" y2="1"><stop offset="0" stop-color="#6e6778"/><stop offset=".5" stop-color="#352C44"/><stop offset="1" stop-color="#241e36"/></linearGradient></defs><ellipse cx="128" cy="222" rx="84" ry="11" fill="#000" opacity=".28"/><g opacity="1"><path d="M16 186a112 26 0 1 0 224 0a112 26 0 1 0 -224 0Z" fill="url(#g1)"/><g clip-path="url(#c2)"><path d="M16 186a112 26 0 1 0 224 0a112 26 0 1 0 -224 0Z" fill="none" stroke="#171328" stroke-width="14.399999999999999" transform="translate(5 6)" opacity=".55"/><path d="M16 186a112 26 0 1 0 224 0a112 26 0 1 0 -224 0Z" fill="none" stroke="#9f9ca5" stroke-width="7.800000000000001" transform="translate(-3 -3)" opacity=".75"/><path d="M16 186a112 26 0 1 0 224 0a112 26 0 1 0 -224 0Z" fill="url(#w3)"/></g><path d="M16 186a112 26 0 1 0 224 0a112 26 0 1 0 -224 0Z" fill="none" stroke="#1A1226" stroke-width="6" stroke-linejoin="round" stroke-linecap="round"/></g><g opacity="1"><path d="M66 182 Q98 120 110 76 Q116 40 176 30 Q146 54 150 84 Q162 136 190 182 Q128 202 66 182Z" fill="url(#g4)"/><g clip-path="url(#c5)"><path d="M66 182 Q98 120 110 76 Q116 40 176 30 Q146 54 150 84 Q162 136 190 182 Q128 202 66 182Z" fill="none" stroke="#1d1831" stroke-width="14.399999999999999" transform="translate(5 6)" opacity=".55"/><path d="M66 182 Q98 120 110 76 Q116 40 176 30 Q146 54 150 84 Q162 136 190 182 Q128 202 66 182Z" fill="none" stroke="#a4a0ab" stroke-width="7.800000000000001" transform="translate(-3 -3)" opacity=".75"/><path d="M66 182 Q98 120 110 76 Q116 40 176 30 Q146 54 150 84 Q162 136 190 182 Q128 202 66 182Z" fill="url(#w6)"/></g><path d="M66 182 Q98 120 110 76 Q116 40 176 30 Q146 54 150 84 Q162 136 190 182 Q128 202 66 182Z" fill="none" stroke="#1A1226" stroke-width="6" stroke-linejoin="round" stroke-linecap="round"/></g><g opacity="1"><path d="M66 164L66 180A62 16 0 0 0 190 180L190 164A62 16 0 0 1 66 164Z" fill="url(#g7)"/><g clip-path="url(#c8)"><path d="M66 164L66 180A62 16 0 0 0 190 180L190 164A62 16 0 0 1 66 164Z" fill="none" stroke="#4c2a9f" stroke-width="14.399999999999999" transform="translate(5 6)" opacity=".55"/><path d="M66 164L66 180A62 16 0 0 0 190 180L190 164A62 16 0 0 1 66 164Z" fill="none" stroke="#cbaff8" stroke-width="7.800000000000001" transform="translate(-3 -3)" opacity=".75"/><path d="M66 164L66 180A62 16 0 0 0 190 180L190 164A62 16 0 0 1 66 164Z" fill="url(#w9)"/></g><path d="M66 164L66 180A62 16 0 0 0 190 180L190 164A62 16 0 0 1 66 164Z" fill="none" stroke="#1A1226" stroke-width="6" stroke-linejoin="round" stroke-linecap="round"/></g><g opacity="1"><path d="M118 164h20a4 4 0 0 1 4 4v14a4 4 0 0 1 -4 4h-20a4 4 0 0 1 -4 -4v-14a4 4 0 0 1 4 -4Z" fill="url(#g10)"/><g clip-path="url(#c11)"><path d="M118 164h20a4 4 0 0 1 4 4v14a4 4 0 0 1 -4 4h-20a4 4 0 0 1 -4 -4v-14a4 4 0 0 1 4 -4Z" fill="none" stroke="#85642b" stroke-width="14.399999999999999" transform="translate(5 6)" opacity=".55"/><path d="M118 164h20a4 4 0 0 1 4 4v14a4 4 0 0 1 -4 4h-20a4 4 0 0 1 -4 -4v-14a4 4 0 0 1 4 -4Z" fill="none" stroke="#f9dea6" stroke-width="7.800000000000001" transform="translate(-3 -3)" opacity=".75"/><path d="M118 164h20a4 4 0 0 1 4 4v14a4 4 0 0 1 -4 4h-20a4 4 0 0 1 -4 -4v-14a4 4 0 0 1 4 -4Z" fill="url(#w12)"/></g><path d="M118 164h20a4 4 0 0 1 4 4v14a4 4 0 0 1 -4 4h-20a4 4 0 0 1 -4 -4v-14a4 4 0 0 1 4 -4Z" fill="none" stroke="#1A1226" stroke-width="6" stroke-linejoin="round" stroke-linecap="round"/></g><g opacity="1"><path d="M123 169h10a2 2 0 0 1 2 2v8a2 2 0 0 1 -2 2h-10a2 2 0 0 1 -2 -2v-8a2 2 0 0 1 2 -2Z" fill="url(#g13)"/><path d="M123 169h10a2 2 0 0 1 2 2v8a2 2 0 0 1 -2 2h-10a2 2 0 0 1 -2 -2v-8a2 2 0 0 1 2 -2Z" fill="none" stroke="#1A1226" stroke-width="6" stroke-linejoin="round" stroke-linecap="round"/></g></svg>