<svg xmlns="http://www.w3.org/2000/svg" viewBox="0 0 256 256"><defs><linearGradient id="g1" x1="0" y1="0" x2="1" y2="0"><stop offset="0" stop-color="#f2eddf"/><stop offset=".5" stop-color="#EDE6D2"/><stop offset="1" stop-color="#a19ca0"/></linearGradient><clipPath id="c2"><path d="M128 16 L148 44 L148 58 L160 68 L148 80 L160 92 L148 104 L160 116 L148 128 L148 150 L108 150 L108 44Z"/></clipPath><linearGradient id="w3" x1="0" y1="0" x2="0" y2="1"><stop offset="0" stop-color="#fff" stop-opacity="0.35"/><stop offset=".45" stop-color="#fff" stop-opacity="0"/></linearGradient><clipPath id="k4"><path d="M128 16 L148 44 L148 58 L160 68 L148 80 L160 92 L148 104 L160 116 L148 128 L148 150 L108 150 L108 44Z"/></clipPath><linearGradient id="g5" x1="0" y1="0" x2="0" y2="1"><stop offset="0" stop-color="#EDE6D2"/><stop offset="1" stop-color="#EDE6D2"/></linearGradient><linearGradient id="g6" x1="0" y1="0" x2="0" y2="1"><stop offset="0" stop-color="#e3dbc8"/><stop offset=".5" stop-color="#D8CDB2"/><stop offset="1" stop-color="#938b88"/></linearGradient><clipPath id="c7"><path d="M84 146 L172 146 L180 154 L172 162 L84 162 L76 154Z"/></clipPath><linearGradient id="w8" x1="0" y1="0" x2="0" y2="1"><stop offset="0" stop-color="#fff" stop-opacity="0.45"/><stop offset=".45" stop-color="#fff" stop-opacity="0"/></linearGradient><linearGradient id="g9" x1="0" y1="0" x2="0" y2="1"><stop offset="0" stop-color="#948879"/><stop offset=".5" stop-color="#6B5A45"/><stop offset="1" stop-color="#493d37"/></linearGradient><clipPath id="c10"><path d="M124 162h8a7 7 0 0 1 7 7v36a7 7 0 0 1 -7 7h-8a7 7 0 0 1 -7 -7v-36a7 7 0 0 1 7 -7Z"/></clipPath><linearGradient id="w11" x1="0" y1="0" x2="0" y2="1"><stop offset="0" stop-color="#fff" stop-opacity="0.45"/><stop offset=".45" stop-color="#fff" stop-opacity="0"/></linearGradient><clipPath id="k12"><path d="M124 162h8a7 7 0 0 1 7 7v36a7 7 0 0 1 -7 7h-8a7 7 0 0 1 -7 -7v-36a7 7 0 0 1 7 -7Z"/></clipPath><linearGradient id="g13" x1="0" y1="0" x2="0" y2="1"><stop offset="0" stop-color="#f2ede1"/><stop offset=".5" stop-color="#EDE6D6"/><stop offset="1" stop-color="#a19ca3"/></linearGradient><clipPath id="c14"><path d="M114 222a14 14 0 1 0 28 0a14 14 0 1 0 -28 0Z"/></clipPath><linearGradient id="w15" x1="0" y1="0" x2="0" y2="1"><stop offset="0" stop-color="#fff" stop-opacity="0.45"/><stop offset=".45" stop-color="#fff" stop-opacity="0"/></linearGradient><linearGradient id="g16" x1="0" y1="0" x2="0" y2="1"><stop offset="0" stop-color="#5a5463"/><stop offset=".5" stop-color="#1A1226"/><stop offset="1" stop-color="#120c20"/></linearGradient><linearGradient id="g17" x1="0" y1="0" x2="0" y2="1"><stop offset="0" stop-color="#5a5463"/><stop offset=".5" stop-color="#1A1226"/><stop offset="1" stop-color="#120c20"/></linearGradient></defs><ellipse cx="128" cy="234" rx="70" ry="9" fill="#000" opacity=".28"/><g transform="translate(128 130) rotate(45) scale(1.04) translate(-128 -124)"><g opacity="1"><path d="M128 16 L148 44 L148 58 L160 68 L148 80 L160 92 L148 104 L160 116 L148 128 L148 150 L108 150 L108 44Z" fill="url(#g1)"/><g clip-path="url(#c2)"><path d="M128 16 L148 44 L148 58 L160 68 L148 80 L160 92 L148 104 L160 116 L148 128 L148 150 L108 150 L108 44Z" fill="none" stroke="#827f8c" stroke-width="14.399999999999999" transform="translate(5 6)" opacity=".55"/><path d="M128 16 L148 44 L148 58 L160 68 L148 80 L160 92 L148 104 L160 116 L148 128 L148 150 L108 150 L108 44Z" fill="none" stroke="#f7f4eb" stroke-width="7.800000000000001" transform="translate(-3 -3)" opacity=".75"/><path d="M128 16 L148 44 L148 58 L160 68 L148 80 L160 92 L148 104 L160 116 L148 128 L148 150 L108 150 L108 44Z" fill="url(#w3)"/></g><path d="M128 16 L148 44 L148 58 L160 68 L148 80 L160 92 L148 104 L160 116 L148 128 L148 150 L108 150 L108 44Z" fill="none" stroke="#1A1226" stroke-width="6" stroke-linejoin="round" stroke-linecap="round"/></g><g clip-path="url(#k4)"><path d="M128 52 L128 142" fill="none" stroke="#a6a1a3" stroke-width="5" stroke-linecap="round" stroke-linejoin="round" opacity="0.55"/><path d="M131 54 L131 140" fill="none" stroke="#f8f5ed" stroke-width="2.5" stroke-linecap="round" stroke-linejoin="round" opacity="0.7"/><path d="M118 60 Q124 64 118 70 M120 100 Q126 104 120 110" fill="none" stroke="#B8AC8E" stroke-width="3" stroke-linecap="round" stroke-linejoin="round" opacity="1"/></g><g opacity="0"><path d="M128 16 L148 44 L148 58 L160 68 L148 80 L160 92 L148 104 L160 116 L148 128 L148 150 L108 150 L108 44Z" fill="url(#g5)"/><path d="M128 16 L148 44 L148 58 L160 68 L148 80 L160 92 L148 104 L160 116 L148 128 L148 150 L108 150 L108 44Z" fill="none" stroke="#1A1226" stroke-width="6" stroke-linejoin="round" stroke-linecap="round"/></g><path d="M128 16 L148 44 L148 58 L160 68 L148 80 L160 92 L148 104 L160 116 L148 128 L148 150 L108 150 L108 44Z" fill="none" stroke="#1A1226" stroke-width="5.5" stroke-linecap="round" stroke-linejoin="round" opacity="1"/><g opacity="1"><path d="M84 146 L172 146 L180 154 L172 162 L84 162 L76 154Z" fill="url(#g6)"/><g clip-path="url(#c7)"><path d="M84 146 L172 146 L180 154 L172 162 L84 162 L76 154Z" fill="none" stroke="#777177" stroke-width="14.399999999999999" transform="translate(5 6)" opacity=".55"/><path d="M84 146 L172 146 L180 154 L172 162 L84 162 L76 154Z" fill="none" stroke="#ede9dc" stroke-width="7.800000000000001" transform="translate(-3 -3)" opacity=".75"/><path d="M84 146 L172 146 L180 154 L172 162 L84 162 L76 154Z" fill="url(#w8)"/></g><path d="M84 146 L172 146 L180 154 L172 162 L84 162 L76 154Z" fill="none" stroke="#1A1226" stroke-width="6" stroke-linejoin="round" stroke-linecap="round"/></g><g opacity="1"><path d="M124 162h8a7 7 0 0 1 7 7v36a7 7 0 0 1 -7 7h-8a7 7 0 0 1 -7 -7v-36a7 7 0 0 1 7 -7Z" fill="url(#g9)"/><g clip-path="url(#c10)"><path d="M124 162h8a7 7 0 0 1 7 7v36a7 7 0 0 1 -7 7h-8a7 7 0 0 1 -7 -7v-36a7 7 0 0 1 7 -7Z" fill="none" stroke="#3b3232" stroke-width="14.399999999999999" transform="translate(5 6)" opacity=".55"/><path d="M124 162h8a7 7 0 0 1 7 7v36a7 7 0 0 1 -7 7h-8a7 7 0 0 1 -7 -7v-36a7 7 0 0 1 7 -7Z" fill="none" stroke="#bcb5ab" stroke-width="7.800000000000001" transform="translate(-3 -3)" opacity=".75"/><path d="M124 162h8a7 7 0 0 1 7 7v36a7 7 0 0 1 -7 7h-8a7 7 0 0 1 -7 -7v-36a7 7 0 0 1 7 -7Z" fill="url(#w11)"/></g><path d="M124 162h8a7 7 0 0 1 7 7v36a7 7 0 0 1 -7 7h-8a7 7 0 0 1 -7 -7v-36a7 7 0 0 1 7 -7Z" fill="none" stroke="#1A1226" stroke-width="6" stroke-linejoin="round" stroke-linecap="round"/></g><g clip-path="url(#k12)"><path d="M114 170 L142 162" fill="none" stroke="#9f9486" stroke-width="4" stroke-linecap="round" stroke-linejoin="round" opacity="1"/><path d="M114 180 L142 172" fill="none" stroke="#9f9486" stroke-width="4" stroke-linecap="round" stroke-linejoin="round" opacity="1"/><path d="M114 190 L142 182" fill="none" stroke="#9f9486" stroke-width="4" stroke-linecap="round" stroke-linejoin="round" opacity="1"/><path d="M114 200 L142 192" fill="none" stroke="#9f9486" stroke-width="4" stroke-linecap="round" stroke-linejoin="round" opacity="1"/><path d="M114 210 L142 202" fill="none" stroke="#9f9486" stroke-width="4" stroke-linecap="round" stroke-linejoin="round" opacity="1"/></g><g opacity="1"><path d="M114 222a14 14 0 1 0 28 0a14 14 0 1 0 -28 0Z" fill="url(#g13)"/><g clip-path="url(#c14)"><path d="M114 222a14 14 0 1 0 28 0a14 14 0 1 0 -28 0Z" fill="none" stroke="#827f8e" stroke-width="14.399999999999999" transform="translate(5 6)" opacity=".55"/><path d="M114 222a14 14 0 1 0 28 0a14 14 0 1 0 -28 0Z" fill="none" stroke="#f7f4ed" stroke-width="7.800000000000001" transform="translate(-3 -3)" opacity=".75"/><path d="M114 222a14 14 0 1 0 28 0a14 14 0 1 0 -28 0Z" fill="url(#w15)"/></g><path d="M114 222a14 14 0 1 0 28 0a14 14 0 1 0 -28 0Z" fill="none" stroke="#1A1226" stroke-width="6" stroke-linejoin="round" stroke-linecap="round"/></g><g opacity="1"><path d="M119.5 220a3.5 3.5 0 1 0 7 0a3.5 3.5 0 1 0 -7 0Z" fill="url(#g16)"/></g><g opacity="1"><path d="M129.5 220a3.5 3.5 0 1 0 7 0a3.5 3.5 0 1 0 -7 0Z" fill="url(#g17)"/></g></g></svg>