<svg xmlns="http://www.w3.org/2000/svg" viewBox="0 0 256 256"><defs><linearGradient id="g1" x1="0" y1="0" x2="1" y2="0"><stop offset="0" stop-color="#69aee9"/><stop offset=".5" stop-color="#2F8FE0"/><stop offset="1" stop-color="#2061aa"/></linearGradient><clipPath id="c2"><path d="M128 16 Q164 72 142 150 L114 150 Q92 72 128 16Z"/></clipPath><linearGradient id="w3" x1="0" y1="0" x2="0" y2="1"><stop offset="0" stop-color="#fff" stop-opacity="0.35"/><stop offset=".45" stop-color="#fff" stop-opacity="0"/></linearGradient><clipPath id="k4"><path d="M128 16 Q164 72 142 150 L114 150 Q92 72 128 16Z"/></clipPath><linearGradient id="g5" x1="0" y1="0" x2="0" y2="1"><stop offset="0" stop-color="#2F8FE0"/><stop offset="1" stop-color="#2F8FE0"/></linearGradient><linearGradient id="g6" x1="0" y1="0" x2="0" y2="1"><stop offset="0" stop-color="#5a7d9f"/><stop offset=".5" stop-color="#1A4A7A"/><stop offset="1" stop-color="#12325f"/></linearGradient><clipPath id="c7"><path d="M80 136 Q128 178 176 136 Q174 162 154 168 L102 168 Q82 162 80 136Z"/></clipPath><linearGradient id="w8" x1="0" y1="0" x2="0" y2="1"><stop offset="0" stop-color="#fff" stop-opacity="0.45"/><stop offset=".45" stop-color="#fff" stop-opacity="0"/></linearGradient><linearGradient id="g9" x1="0" y1="0" x2="0" y2="1"><stop offset="0" stop-color="#51667b"/><stop offset=".5" stop-color="#0E2A48"/><stop offset="1" stop-color="#0a1d39"/></linearGradient><clipPath id="c10"><path d="M124 162h8a7 7 0 0 1 7 7v36a7 7 0 0 1 -7 7h-8a7 7 0 0 1 -7 -7v-36a7 7 0 0 1 7 -7Z"/></clipPath><linearGradient id="w11" x1="0" y1="0" x2="0" y2="1"><stop offset="0" stop-color="#fff" stop-opacity="0.45"/><stop offset=".45" stop-color="#fff" stop-opacity="0"/></linearGradient><clipPath id="k12"><path d="M124 162h8a7 7 0 0 1 7 7v36a7 7 0 0 1 -7 7h-8a7 7 0 0 1 -7 -7v-36a7 7 0 0 1 7 -7Z"/></clipPath><radialGradient id="r13"><stop offset="0" stop-color="#3AC8FF" stop-opacity="0.45"/><stop offset="1" stop-color="#3AC8FF" stop-opacity="0"/></radialGradient><linearGradient id="g14" x1="0" y1="0" x2="0" y2="1"><stop offset="0" stop-color="#d1f7ff"/><stop offset=".5" stop-color="#BFF4FF"/><stop offset="1" stop-color="#82a6c2"/></linearGradient><clipPath id="c15"><path d="M52 90a6 6 0 1 0 12 0a6 6 0 1 0 -12 0Z"/></clipPath><linearGradient id="w16" x1="0" y1="0" x2="0" y2="1"><stop offset="0" stop-color="#fff" stop-opacity="0.5"/><stop offset=".45" stop-color="#fff" stop-opacity="0"/></linearGradient><linearGradient id="g17" x1="0" y1="0" x2="0" y2="1"><stop offset="0" stop-color="#d1f7ff"/><stop offset=".5" stop-color="#BFF4FF"/><stop offset="1" stop-color="#82a6c2"/></linearGradient><clipPath id="c18"><path d="M66 70a4 4 0 1 0 8 0a4 4 0 1 0 -8 0Z"/></clipPath><linearGradient id="w19" x1="0" y1="0" x2="0" y2="1"><stop offset="0" stop-color="#fff" stop-opacity="0.5"/><stop offset=".45" stop-color="#fff" stop-opacity="0"/></linearGradient></defs><ellipse cx="128" cy="234" rx="70" ry="9" fill="#000" opacity=".28"/><circle cx="140" cy="112" r="112" fill="url(#r13)"/><g transform="translate(128 130) rotate(45) scale(1.04) translate(-128 -124)"><g opacity="1"><path d="M128 16 Q164 72 142 150 L114 150 Q92 72 128 16Z" fill="url(#g1)"/><g clip-path="url(#c2)"><path d="M128 16 Q164 72 142 150 L114 150 Q92 72 128 16Z" fill="none" stroke="#1a4f95" stroke-width="14.399999999999999" transform="translate(5 6)" opacity=".55"/><path d="M128 16 Q164 72 142 150 L114 150 Q92 72 128 16Z" fill="none" stroke="#a1cdf1" stroke-width="7.800000000000001" transform="translate(-3 -3)" opacity=".75"/><path d="M128 16 Q164 72 142 150 L114 150 Q92 72 128 16Z" fill="url(#w3)"/></g><path d="M128 16 Q164 72 142 150 L114 150 Q92 72 128 16Z" fill="none" stroke="#1A1226" stroke-width="6" stroke-linejoin="round" stroke-linecap="round"/></g><g clip-path="url(#k4)"><path d="M128 52 L128 142" fill="none" stroke="#2164ae" stroke-width="5" stroke-linecap="round" stroke-linejoin="round" opacity="0.55"/><path d="M131 54 L131 140" fill="none" stroke="#acd2f3" stroke-width="2.5" stroke-linecap="round" stroke-linejoin="round" opacity="0.7"/><path d="M104 70 Q116 62 128 70 T152 70 M104 100 Q116 92 128 100 T152 100 M106 130 Q118 122 130 130 T150 130" fill="none" stroke="#BFF4FF" stroke-width="3.5" stroke-linecap="round" stroke-linejoin="round" opacity="1"/></g><g opacity="0"><path d="M128 16 Q164 72 142 150 L114 150 Q92 72 128 16Z" fill="url(#g5)"/><path d="M128 16 Q164 72 142 150 L114 150 Q92 72 128 16Z" fill="none" stroke="#1A1226" stroke-width="6" stroke-linejoin="round" stroke-linecap="round"/></g><path d="M128 16 Q164 72 142 150 L114 150 Q92 72 128 16Z" fill="none" stroke="#1A1226" stroke-width="5.5" stroke-linecap="round" stroke-linejoin="round" opacity="1"/><g opacity="1"><path d="M80 136 Q128 178 176 136 Q174 162 154 168 L102 168 Q82 162 80 136Z" fill="url(#g6)"/><g clip-path="url(#c7)"><path d="M80 136 Q128 178 176 136 Q174 162 154 168 L102 168 Q82 162 80 136Z" fill="none" stroke="#0e2953" stroke-width="14.399999999999999" transform="translate(5 6)" opacity=".55"/><path d="M80 136 Q128 178 176 136 Q174 162 154 168 L102 168 Q82 162 80 136Z" fill="none" stroke="#98aec3" stroke-width="7.800000000000001" transform="translate(-3 -3)" opacity=".75"/><path d="M80 136 Q128 178 176 136 Q174 162 154 168 L102 168 Q82 162 80 136Z" fill="url(#w8)"/></g><path d="M80 136 Q128 178 176 136 Q174 162 154 168 L102 168 Q82 162 80 136Z" fill="none" stroke="#1A1226" stroke-width="6" stroke-linejoin="round" stroke-linecap="round"/></g><g opacity="1"><path d="M124 162h8a7 7 0 0 1 7 7v36a7 7 0 0 1 -7 7h-8a7 7 0 0 1 -7 -7v-36a7 7 0 0 1 7 -7Z" fill="url(#g9)"/><g clip-path="url(#c10)"><path d="M124 162h8a7 7 0 0 1 7 7v36a7 7 0 0 1 -7 7h-8a7 7 0 0 1 -7 -7v-36a7 7 0 0 1 7 -7Z" fill="none" stroke="#081733" stroke-width="14.399999999999999" transform="translate(5 6)" opacity=".55"/><path d="M124 162h8a7 7 0 0 1 7 7v36a7 7 0 0 1 -7 7h-8a7 7 0 0 1 -7 -7v-36a7 7 0 0 1 7 -7Z" fill="none" stroke="#939fad" stroke-width="7.800000000000001" transform="translate(-3 -3)" opacity=".75"/><path d="M124 162h8a7 7 0 0 1 7 7v36a7 7 0 0 1 -7 7h-8a7 7 0 0 1 -7 -7v-36a7 7 0 0 1 7 -7Z" fill="url(#w11)"/></g><path d="M124 162h8a7 7 0 0 1 7 7v36a7 7 0 0 1 -7 7h-8a7 7 0 0 1 -7 -7v-36a7 7 0 0 1 7 -7Z" fill="none" stroke="#1A1226" stroke-width="6" stroke-linejoin="round" stroke-linecap="round"/></g><g clip-path="url(#k12)"><path d="M114 170 L142 162" fill="none" stroke="#627588" stroke-width="4" stroke-linecap="round" stroke-linejoin="round" opacity="1"/><path d="M114 180 L142 172" fill="none" stroke="#627588" stroke-width="4" stroke-linecap="round" stroke-linejoin="round" opacity="1"/><path d="M114 190 L142 182" fill="none" stroke="#627588" stroke-width="4" stroke-linecap="round" stroke-linejoin="round" opacity="1"/><path d="M114 200 L142 192" fill="none" stroke="#627588" stroke-width="4" stroke-linecap="round" stroke-linejoin="round" opacity="1"/><path d="M114 210 L142 202" fill="none" stroke="#627588" stroke-width="4" stroke-linecap="round" stroke-linejoin="round" opacity="1"/></g><g><path d="M128 209L139.2583302491977 215.5L133.62916512459884 218.75L128 215.5Z" fill="#adf1ff"/><path d="M139.2583302491977 215.5L139.2583302491977 228.5L133.62916512459884 225.25L133.62916512459884 218.75Z" fill="#88ebff"/><path d="M139.2583302491977 228.5L128 235L128 228.5L133.62916512459884 225.25Z" fill="#5ac4e2"/><path d="M128 235L116.7416697508023 228.5L122.37083487540114 225.25L128 228.5Z" fill="#4596bc"/><path d="M116.7416697508023 228.5L116.7416697508023 215.5L122.37083487540114 218.75L122.37083487540114 225.25Z" fill="#55b8d9"/><path d="M116.7416697508023 215.5L128 209L128 215.5L122.37083487540114 218.75Z" fill="#97eeff"/><path d="M128 215.5L133.62916512459884 218.75L133.62916512459884 225.25L128 228.5L122.37083487540114 225.25L122.37083487540114 218.75Z" fill="#80eaff"/><path d="M128 209L139.2583302491977 215.5L139.2583302491977 228.5L128 235L116.7416697508023 228.5L116.7416697508023 215.5Z" fill="none" stroke="#1A1226" stroke-width="5" stroke-linejoin="round"/><path d="M122.26211410676038 214.11716006275898L126.14624102124529 211.76654615251107L126.10875603384851 216.46414448702862Z" fill="#fff" opacity=".8"/></g></g><g opacity="1"><path d="M52 90a6 6 0 1 0 12 0a6 6 0 1 0 -12 0Z" fill="url(#g14)"/><g clip-path="url(#c15)"><path d="M52 90a6 6 0 1 0 12 0a6 6 0 1 0 -12 0Z" fill="none" stroke="#6986a9" stroke-width="14.399999999999999" transform="translate(5 6)" opacity=".55"/><path d="M52 90a6 6 0 1 0 12 0a6 6 0 1 0 -12 0Z" fill="none" stroke="#e2faff" stroke-width="7.800000000000001" transform="translate(-3 -3)" opacity=".75"/><path d="M52 90a6 6 0 1 0 12 0a6 6 0 1 0 -12 0Z" fill="url(#w16)"/></g><path d="M52 90a6 6 0 1 0 12 0a6 6 0 1 0 -12 0Z" fill="none" stroke="#1A1226" stroke-width="6" stroke-linejoin="round" stroke-linecap="round"/></g><g opacity="1"><path d="M66 70a4 4 0 1 0 8 0a4 4 0 1 0 -8 0Z" fill="url(#g17)"/><g clip-path="url(#c18)"><path d="M66 70a4 4 0 1 0 8 0a4 4 0 1 0 -8 0Z" fill="none" stroke="#6986a9" stroke-width="14.399999999999999" transform="translate(5 6)" opacity=".55"/><path d="M66 70a4 4 0 1 0 8 0a4 4 0 1 0 -8 0Z" fill="none" stroke="#e2faff" stroke-width="7.800000000000001" transform="translate(-3 -3)" opacity=".75"/><path d="M66 70a4 4 0 1 0 8 0a4 4 0 1 0 -8 0Z" fill="url(#w19)"/></g><path d="M66 70a4 4 0 1 0 8 0a4 4 0 1 0 -8 0Z" fill="none" stroke="#1A1226" stroke-width="6" stroke-linejoin="round" stroke-linecap="round"/></g></svg>