<svg xmlns="http://www.w3.org/2000/svg" viewBox="0 0 256 256"><defs><linearGradient id="g1" x1="0" y1="0" x2="1" y2="0"><stop offset="0" stop-color="#716666"/><stop offset=".5" stop-color="#3A2A2A"/><stop offset="1" stop-color="#271d23"/></linearGradient><clipPath id="c2"><path d="M128 22 L154 52 L152 150 L104 150 L102 52Z"/></clipPath><linearGradient id="w3" x1="0" y1="0" x2="0" y2="1"><stop offset="0" stop-color="#fff" stop-opacity="0.35"/><stop offset=".45" stop-color="#fff" stop-opacity="0"/></linearGradient><clipPath id="k4"><path d="M128 22 L154 52 L152 150 L104 150 L102 52Z"/></clipPath><linearGradient id="g5" x1="0" y1="0" x2="0" y2="1"><stop offset="0" stop-color="#3A2A2A"/><stop offset="1" stop-color="#3A2A2A"/></linearGradient><linearGradient id="g6" x1="0" y1="0" x2="0" y2="1"><stop offset="0" stop-color="#665a5a"/><stop offset=".5" stop-color="#2A1A1A"/><stop offset="1" stop-color="#1d1217"/></linearGradient><clipPath id="c7"><path d="M128 150 Q100 150 84 118 Q80 146 98 166 L158 166 Q176 146 172 118 Q156 150 128 150Z"/></clipPath><linearGradient id="w8" x1="0" y1="0" x2="0" y2="1"><stop offset="0" stop-color="#fff" stop-opacity="0.45"/><stop offset=".45" stop-color="#fff" stop-opacity="0"/></linearGradient><linearGradient id="g9" x1="0" y1="0" x2="0" y2="1"><stop offset="0" stop-color="#5a5353"/><stop offset=".5" stop-color="#1A1010"/><stop offset="1" stop-color="#120b10"/></linearGradient><clipPath id="c10"><path d="M124 162h8a7 7 0 0 1 7 7v36a7 7 0 0 1 -7 7h-8a7 7 0 0 1 -7 -7v-36a7 7 0 0 1 7 -7Z"/></clipPath><linearGradient id="w11" x1="0" y1="0" x2="0" y2="1"><stop offset="0" stop-color="#fff" stop-opacity="0.45"/><stop offset=".45" stop-color="#fff" stop-opacity="0"/></linearGradient><clipPath id="k12"><path d="M124 162h8a7 7 0 0 1 7 7v36a7 7 0 0 1 -7 7h-8a7 7 0 0 1 -7 -7v-36a7 7 0 0 1 7 -7Z"/></clipPath><radialGradient id="r13"><stop offset="0" stop-color="#FF4A1A" stop-opacity="0.45"/><stop offset="1" stop-color="#FF4A1A" stop-opacity="0"/></radialGradient><linearGradient id="g14" x1="0" y1="0" x2="0" y2="1"><stop offset="0" stop-color="#ff7d5a"/><stop offset=".5" stop-color="#FF4A1A"/><stop offset="1" stop-color="#ad3217"/></linearGradient><clipPath id="c15"><path d="M196 178.4Q207.2 192.8 203.2 202.4Q196 208.8 188.8 202.4Q184.8 192.8 196 178.4Z"/></clipPath><linearGradient id="w16" x1="0" y1="0" x2="0" y2="1"><stop offset="0" stop-color="#fff" stop-opacity="0.45"/><stop offset=".45" stop-color="#fff" stop-opacity="0"/></linearGradient><linearGradient id="g17" x1="0" y1="0" x2="0" y2="1"><stop offset="0" stop-color="#ffc669"/><stop offset=".5" stop-color="#FFB02E"/><stop offset="1" stop-color="#ad7826"/></linearGradient><clipPath id="c18"><path d="M196 189.6Q200.8 197.6 199.2 201.6Q196 204 192.8 201.6Q191.2 197.6 196 189.6Z"/></clipPath><linearGradient id="w19" x1="0" y1="0" x2="0" y2="1"><stop offset="0" stop-color="#fff" stop-opacity="0.45"/><stop offset=".45" stop-color="#fff" stop-opacity="0"/></linearGradient></defs><ellipse cx="128" cy="234" rx="70" ry="9" fill="#000" opacity=".28"/><circle cx="140" cy="112" r="112" fill="url(#r13)"/><g transform="translate(128 130) rotate(45) scale(1.04) translate(-128 -124)"><g opacity="1"><path d="M128 22 L154 52 L152 150 L104 150 L102 52Z" fill="url(#g1)"/><g clip-path="url(#c2)"><path d="M128 22 L154 52 L152 150 L104 150 L102 52Z" fill="none" stroke="#201720" stroke-width="14.399999999999999" transform="translate(5 6)" opacity=".55"/><path d="M128 22 L154 52 L152 150 L104 150 L102 52Z" fill="none" stroke="#a69f9f" stroke-width="7.800000000000001" transform="translate(-3 -3)" opacity=".75"/><path d="M128 22 L154 52 L152 150 L104 150 L102 52Z" fill="url(#w3)"/></g><path d="M128 22 L154 52 L152 150 L104 150 L102 52Z" fill="none" stroke="#1A1226" stroke-width="6" stroke-linejoin="round" stroke-linecap="round"/></g><g clip-path="url(#k4)"><path d="M128 52 L128 142" fill="none" stroke="#291d24" stroke-width="5" stroke-linecap="round" stroke-linejoin="round" opacity="0.55"/><path d="M131 54 L131 140" fill="none" stroke="#b0aaaa" stroke-width="2.5" stroke-linecap="round" stroke-linejoin="round" opacity="0.7"/><path d="M128 30 L120 60 L134 80 L118 104 L136 124 L124 150 M120 60 L108 70 M134 80 L150 88" fill="none" stroke="#FF7A1F" stroke-width="5" stroke-linecap="round" stroke-linejoin="round" opacity="1"/></g><g opacity="0"><path d="M128 22 L154 52 L152 150 L104 150 L102 52Z" fill="url(#g5)"/><path d="M128 22 L154 52 L152 150 L104 150 L102 52Z" fill="none" stroke="#1A1226" stroke-width="6" stroke-linejoin="round" stroke-linecap="round"/></g><path d="M128 22 L154 52 L152 150 L104 150 L102 52Z" fill="none" stroke="#1A1226" stroke-width="5.5" stroke-linecap="round" stroke-linejoin="round" opacity="1"/><g opacity="1"><path d="M128 150 Q100 150 84 118 Q80 146 98 166 L158 166 Q176 146 172 118 Q156 150 128 150Z" fill="url(#g6)"/><g clip-path="url(#c7)"><path d="M128 150 Q100 150 84 118 Q80 146 98 166 L158 166 Q176 146 172 118 Q156 150 128 150Z" fill="none" stroke="#170e16" stroke-width="14.399999999999999" transform="translate(5 6)" opacity=".55"/><path d="M128 150 Q100 150 84 118 Q80 146 98 166 L158 166 Q176 146 172 118 Q156 150 128 150Z" fill="none" stroke="#9f9898" stroke-width="7.800000000000001" transform="translate(-3 -3)" opacity=".75"/><path d="M128 150 Q100 150 84 118 Q80 146 98 166 L158 166 Q176 146 172 118 Q156 150 128 150Z" fill="url(#w8)"/></g><path d="M128 150 Q100 150 84 118 Q80 146 98 166 L158 166 Q176 146 172 118 Q156 150 128 150Z" fill="none" stroke="#1A1226" stroke-width="6" stroke-linejoin="round" stroke-linecap="round"/></g><g opacity="1"><path d="M124 162h8a7 7 0 0 1 7 7v36a7 7 0 0 1 -7 7h-8a7 7 0 0 1 -7 -7v-36a7 7 0 0 1 7 -7Z" fill="url(#g9)"/><g clip-path="url(#c10)"><path d="M124 162h8a7 7 0 0 1 7 7v36a7 7 0 0 1 -7 7h-8a7 7 0 0 1 -7 -7v-36a7 7 0 0 1 7 -7Z" fill="none" stroke="#0e0910" stroke-width="14.399999999999999" transform="translate(5 6)" opacity=".55"/><path d="M124 162h8a7 7 0 0 1 7 7v36a7 7 0 0 1 -7 7h-8a7 7 0 0 1 -7 -7v-36a7 7 0 0 1 7 -7Z" fill="none" stroke="#989393" stroke-width="7.800000000000001" transform="translate(-3 -3)" opacity=".75"/><path d="M124 162h8a7 7 0 0 1 7 7v36a7 7 0 0 1 -7 7h-8a7 7 0 0 1 -7 -7v-36a7 7 0 0 1 7 -7Z" fill="url(#w11)"/></g><path d="M124 162h8a7 7 0 0 1 7 7v36a7 7 0 0 1 -7 7h-8a7 7 0 0 1 -7 -7v-36a7 7 0 0 1 7 -7Z" fill="none" stroke="#1A1226" stroke-width="6" stroke-linejoin="round" stroke-linecap="round"/></g><g clip-path="url(#k12)"><path d="M114 170 L142 162" fill="none" stroke="#6a6464" stroke-width="4" stroke-linecap="round" stroke-linejoin="round" opacity="1"/><path d="M114 180 L142 172" fill="none" stroke="#6a6464" stroke-width="4" stroke-linecap="round" stroke-linejoin="round" opacity="1"/><path d="M114 190 L142 182" fill="none" stroke="#6a6464" stroke-width="4" stroke-linecap="round" stroke-linejoin="round" opacity="1"/><path d="M114 200 L142 192" fill="none" stroke="#6a6464" stroke-width="4" stroke-linecap="round" stroke-linejoin="round" opacity="1"/><path d="M114 210 L142 202" fill="none" stroke="#6a6464" stroke-width="4" stroke-linecap="round" stroke-linejoin="round" opacity="1"/></g><g><path d="M128 209L139.2583302491977 215.5L133.62916512459884 218.75L128 215.5Z" fill="#ffad81"/><path d="M139.2583302491977 215.5L139.2583302491977 228.5L133.62916512459884 225.25L133.62916512459884 218.75Z" fill="#ff8848"/><path d="M139.2583302491977 228.5L128 235L128 228.5L133.62916512459884 225.25Z" fill="#d95a19"/><path d="M128 235L116.7416697508023 228.5L122.37083487540114 225.25L128 228.5Z" fill="#a64517"/><path d="M116.7416697508023 228.5L116.7416697508023 215.5L122.37083487540114 218.75L122.37083487540114 225.25Z" fill="#cc5518"/><path d="M116.7416697508023 215.5L128 209L128 215.5L122.37083487540114 218.75Z" fill="#ff975f"/><path d="M128 215.5L133.62916512459884 218.75L133.62916512459884 225.25L128 228.5L122.37083487540114 225.25L122.37083487540114 218.75Z" fill="#ff803c"/><path d="M128 209L139.2583302491977 215.5L139.2583302491977 228.5L128 235L116.7416697508023 228.5L116.7416697508023 215.5Z" fill="none" stroke="#1A1226" stroke-width="5" stroke-linejoin="round"/><path d="M122.26211410676038 214.11716006275898L126.14624102124529 211.76654615251107L126.10875603384851 216.46414448702862Z" fill="#fff" opacity=".8"/></g></g><g opacity="1"><path d="M196 178.4Q207.2 192.8 203.2 202.4Q196 208.8 188.8 202.4Q184.8 192.8 196 178.4Z" fill="url(#g14)"/><g clip-path="url(#c15)"><path d="M196 178.4Q207.2 192.8 203.2 202.4Q196 208.8 188.8 202.4Q184.8 192.8 196 178.4Z" fill="none" stroke="#8c2916" stroke-width="9.6" transform="translate(5 6)" opacity=".55"/><path d="M196 178.4Q207.2 192.8 203.2 202.4Q196 208.8 188.8 202.4Q184.8 192.8 196 178.4Z" fill="none" stroke="#ffae98" stroke-width="5.2" transform="translate(-3 -3)" opacity=".75"/><path d="M196 178.4Q207.2 192.8 203.2 202.4Q196 208.8 188.8 202.4Q184.8 192.8 196 178.4Z" fill="url(#w16)"/></g><path d="M196 178.4Q207.2 192.8 203.2 202.4Q196 208.8 188.8 202.4Q184.8 192.8 196 178.4Z" fill="none" stroke="#1A1226" stroke-width="4" stroke-linejoin="round" stroke-linecap="round"/></g><g opacity="1"><path d="M196 189.6Q200.8 197.6 199.2 201.6Q196 204 192.8 201.6Q191.2 197.6 196 189.6Z" fill="url(#g17)"/><g clip-path="url(#c18)"><path d="M196 189.6Q200.8 197.6 199.2 201.6Q196 204 192.8 201.6Q191.2 197.6 196 189.6Z" fill="url(#w19)"/></g></g></svg>